<svg width="38" height="38" viewBox="0 0 38 38" fill="none" xmlns="http://www.w3.org/2000/svg">
<g filter="url(#filter0_ii_214_2081)">
<path d="M13.0669 5.86707C14.9166 0.17452 22.97 0.17452 24.8196 5.86707C25.6468 8.41285 28.0192 10.1365 30.6959 10.1365C36.6814 10.1365 39.1701 17.7958 34.3277 21.3139C32.1622 22.8873 31.256 25.6762 32.0832 28.222C33.9328 33.9145 27.4174 38.6482 22.575 35.13C20.4095 33.5567 17.4771 33.5567 15.3115 35.13C10.4691 38.6482 3.95376 33.9145 5.80338 28.222C6.63055 25.6762 5.72439 22.8873 3.55881 21.3139C-1.28355 17.7958 1.20509 10.1365 7.19059 10.1365C9.86739 10.1365 12.2398 8.41285 13.0669 5.86707Z" fill="url(#paint0_linear_214_2081)"/>
</g>
<path d="M12.6904 5.42871C14.8616 -0.438985 23.3269 -0.34414 25.2949 5.71289L25.3701 5.92969C26.1915 8.14987 28.3129 9.63672 30.6963 9.63672L30.9961 9.64258C37.1486 9.88992 39.6931 17.7205 34.8613 21.5371L34.6221 21.7188C32.6318 23.1648 31.7984 25.7276 32.5586 28.0674L32.6455 28.3555C34.311 34.2832 27.6502 39.1224 22.5273 35.7061L22.2812 35.5342C20.3531 34.1334 17.7634 34.09 15.7939 35.4033L15.6055 35.5342C10.3712 39.3371 3.32883 34.2206 5.32812 28.0674L5.39453 27.8477C6.01435 25.6423 5.24587 23.2774 3.44824 21.8574L3.26465 21.7188C-1.96949 17.9159 0.720703 9.63686 7.19043 9.63672L7.41992 9.63184C9.78533 9.53689 11.8552 7.97959 12.5918 5.71289L12.6904 5.42871Z" stroke="white" stroke-opacity="0.5"/>
<defs>
<filter id="filter0_ii_214_2081" x="-5.00189" y="0.597656" width="50.8903" height="40.745" filterUnits="userSpaceOnUse" color-interpolation-filters="sRGB">
<feFlood flood-opacity="0" result="BackgroundImageFix"/>
<feBlend mode="normal" in="SourceGraphic" in2="BackgroundImageFix" result="shape"/>
<feColorMatrix in="SourceAlpha" type="matrix" values="0 0 0 0 0 0 0 0 0 0 0 0 0 0 0 0 0 0 127 0" result="hardAlpha"/>
<feOffset dx="-5" dy="2"/>
<feGaussianBlur stdDeviation="7"/>
<feComposite in2="hardAlpha" operator="arithmetic" k2="-1" k3="1"/>
<feColorMatrix type="matrix" values="0 0 0 0 0.143144 0 0 0 0 0.137222 0 0 0 0 0.433333 0 0 0 0.25 0"/>
<feBlend mode="normal" in2="shape" result="effect1_innerShadow_214_2081"/>
<feColorMatrix in="SourceAlpha" type="matrix" values="0 0 0 0 0 0 0 0 0 0 0 0 0 0 0 0 0 0 127 0" result="hardAlpha"/>
<feOffset dx="8" dy="4"/>
<feGaussianBlur stdDeviation="7"/>
<feComposite in2="hardAlpha" operator="arithmetic" k2="-1" k3="1"/>
<feColorMatrix type="matrix" values="0 0 0 0 0.478431 0 0 0 0 0.505882 0 0 0 0 0.580392 0 0 0 0.5 0"/>
<feBlend mode="normal" in2="effect1_innerShadow_214_2081" result="effect2_innerShadow_214_2081"/>
</filter>
<linearGradient id="paint0_linear_214_2081" x1="18.9433" y1="1.59766" x2="18.9433" y2="36.3381" gradientUnits="userSpaceOnUse">
<stop stop-color="white"/>
<stop offset="1" stop-color="white" stop-opacity="0"/>
</linearGradient>
</defs>
</svg>
